<mxfile host="app.diagrams.net" modified="2024-02-05T01:55:17.449Z" agent="Mozilla/5.0 (Macintosh; Intel Mac OS X 10_15_7) AppleWebKit/537.36 (KHTML, like Gecko) Chrome/121.0.0.0 Safari/537.36" version="23.1.1" etag="cc3zQqrUr0nw9VNbCJX7" type="github">
  <diagram name="第 1 页" id="N_1ylP6Wpaq6Hp5_Sh2p">
    <mxGraphModel>
      <root>
        <mxCell id="0" />
        <mxCell id="1" parent="0" />
      </root>
    </mxGraphModel>
  </diagram>
</mxfile>
